<svg width="1363" height="163" viewBox="0 0 1363 163" fill="none" xmlns="http://www.w3.org/2000/svg">
<path d="M0 15C0 6.71573 6.71573 0 15 0H37V163H15C6.71573 163 0 156.284 0 148V15Z" fill="#424242"/>
<rect width="1097" height="163" transform="translate(37)" fill="#F0F0F0"/>
<path d="M104.414 55.3398H107.918C107.848 56.4883 107.531 57.5078 106.969 58.3984C106.414 59.2891 105.637 59.9844 104.637 60.4844C103.645 60.9844 102.449 61.2344 101.051 61.2344C99.957 61.2344 98.9766 61.0469 98.1094 60.6719C97.2422 60.2891 96.5 59.7422 95.8828 59.0312C95.2734 58.3203 94.8086 57.4609 94.4883 56.4531C94.168 55.4453 94.0078 54.3164 94.0078 53.0664V51.8828C94.0078 50.6328 94.1719 49.5039 94.5 48.4961C94.8359 47.4805 95.3125 46.6172 95.9297 45.9062C96.5547 45.1953 97.3008 44.6484 98.168 44.2656C99.0352 43.8828 100.004 43.6914 101.074 43.6914C102.496 43.6914 103.695 43.9492 104.672 44.4648C105.656 44.9805 106.418 45.6914 106.957 46.5977C107.504 47.5039 107.832 48.5352 107.941 49.6914H104.426C104.387 49.0039 104.25 48.4219 104.016 47.9453C103.781 47.4609 103.426 47.0977 102.949 46.8555C102.48 46.6055 101.855 46.4805 101.074 46.4805C100.488 46.4805 99.9766 46.5898 99.5391 46.8086C99.1016 47.0273 98.7344 47.3594 98.4375 47.8047C98.1406 48.25 97.918 48.8125 97.7695 49.4922C97.6289 50.1641 97.5586 50.9531 97.5586 51.8594V53.0664C97.5586 53.9492 97.625 54.7266 97.7578 55.3984C97.8906 56.0625 98.0938 56.625 98.3672 57.0859C98.6484 57.5391 99.0078 57.8828 99.4453 58.1172C99.8906 58.3438 100.426 58.457 101.051 58.457C101.785 58.457 102.391 58.3398 102.867 58.1055C103.344 57.8711 103.707 57.5234 103.957 57.0625C104.215 56.6016 104.367 56.0273 104.414 55.3398ZM116.859 58.1406V52.4922C116.859 52.0859 116.793 51.7383 116.66 51.4492C116.527 51.1523 116.32 50.9219 116.039 50.7578C115.766 50.5938 115.41 50.5117 114.973 50.5117C114.598 50.5117 114.273 50.5781 114 50.7109C113.727 50.8359 113.516 51.0195 113.367 51.2617C113.219 51.4961 113.145 51.7734 113.145 52.0938H109.77C109.77 51.5547 109.895 51.043 110.145 50.5586C110.395 50.0742 110.758 49.6484 111.234 49.2812C111.711 48.9062 112.277 48.6133 112.934 48.4023C113.598 48.1914 114.34 48.0859 115.16 48.0859C116.145 48.0859 117.02 48.25 117.785 48.5781C118.551 48.9062 119.152 49.3984 119.59 50.0547C120.035 50.7109 120.258 51.5312 120.258 52.5156V57.9414C120.258 58.6367 120.301 59.207 120.387 59.6523C120.473 60.0898 120.598 60.4727 120.762 60.8008V61H117.352C117.188 60.6562 117.062 60.2266 116.977 59.7109C116.898 59.1875 116.859 58.6641 116.859 58.1406ZM117.305 53.2773L117.328 55.1875H115.441C114.996 55.1875 114.609 55.2383 114.281 55.3398C113.953 55.4414 113.684 55.5859 113.473 55.7734C113.262 55.9531 113.105 56.1641 113.004 56.4062C112.91 56.6484 112.863 56.9141 112.863 57.2031C112.863 57.4922 112.93 57.7539 113.062 57.9883C113.195 58.2148 113.387 58.3945 113.637 58.5273C113.887 58.6523 114.18 58.7148 114.516 58.7148C115.023 58.7148 115.465 58.6133 115.84 58.4102C116.215 58.207 116.504 57.957 116.707 57.6602C116.918 57.3633 117.027 57.082 117.035 56.8164L117.926 58.2461C117.801 58.5664 117.629 58.8984 117.41 59.2422C117.199 59.5859 116.93 59.9102 116.602 60.2148C116.273 60.5117 115.879 60.7578 115.418 60.9531C114.957 61.1406 114.41 61.2344 113.777 61.2344C112.973 61.2344 112.242 61.0742 111.586 60.7539C110.938 60.4258 110.422 59.9766 110.039 59.4062C109.664 58.8281 109.477 58.1719 109.477 57.4375C109.477 56.7734 109.602 56.1836 109.852 55.668C110.102 55.1523 110.469 54.7188 110.953 54.3672C111.445 54.0078 112.059 53.7383 112.793 53.5586C113.527 53.3711 114.379 53.2773 115.348 53.2773H117.305ZM126.422 43V61H123.035V43H126.422ZM134.449 58.5977C134.863 58.5977 135.23 58.5195 135.551 58.3633C135.871 58.1992 136.121 57.9727 136.301 57.6836C136.488 57.3867 136.586 57.0391 136.594 56.6406H139.77C139.762 57.5312 139.523 58.3242 139.055 59.0195C138.586 59.707 137.957 60.25 137.168 60.6484C136.379 61.0391 135.496 61.2344 134.52 61.2344C133.535 61.2344 132.676 61.0703 131.941 60.7422C131.215 60.4141 130.609 59.9609 130.125 59.3828C129.641 58.7969 129.277 58.1172 129.035 57.3438C128.793 56.5625 128.672 55.7266 128.672 54.8359V54.4961C128.672 53.5977 128.793 52.7617 129.035 51.9883C129.277 51.207 129.641 50.5273 130.125 49.9492C130.609 49.3633 131.215 48.9062 131.941 48.5781C132.668 48.25 133.52 48.0859 134.496 48.0859C135.535 48.0859 136.445 48.2852 137.227 48.6836C138.016 49.082 138.633 49.6523 139.078 50.3945C139.531 51.1289 139.762 52 139.77 53.0078H136.594C136.586 52.5859 136.496 52.2031 136.324 51.8594C136.16 51.5156 135.918 51.2422 135.598 51.0391C135.285 50.8281 134.898 50.7227 134.438 50.7227C133.945 50.7227 133.543 50.8281 133.23 51.0391C132.918 51.2422 132.676 51.5234 132.504 51.8828C132.332 52.2344 132.211 52.6367 132.141 53.0898C132.078 53.5352 132.047 54.0039 132.047 54.4961V54.8359C132.047 55.3281 132.078 55.8008 132.141 56.2539C132.203 56.707 132.32 57.1094 132.492 57.4609C132.672 57.8125 132.918 58.0898 133.23 58.293C133.543 58.4961 133.949 58.5977 134.449 58.5977ZM149.227 57.9648V48.3203H152.602V61H149.426L149.227 57.9648ZM149.602 55.3633L150.598 55.3398C150.598 56.1836 150.5 56.9688 150.305 57.6953C150.109 58.4141 149.816 59.0391 149.426 59.5703C149.035 60.0938 148.543 60.5039 147.949 60.8008C147.355 61.0898 146.656 61.2344 145.852 61.2344C145.234 61.2344 144.664 61.1484 144.141 60.9766C143.625 60.7969 143.18 60.5195 142.805 60.1445C142.438 59.7617 142.148 59.2734 141.938 58.6797C141.734 58.0781 141.633 57.3555 141.633 56.5117V48.3203H145.008V56.5352C145.008 56.9102 145.051 57.2266 145.137 57.4844C145.23 57.7422 145.359 57.9531 145.523 58.1172C145.688 58.2812 145.879 58.3984 146.098 58.4688C146.324 58.5391 146.574 58.5742 146.848 58.5742C147.543 58.5742 148.09 58.4336 148.488 58.1523C148.895 57.8711 149.18 57.4883 149.344 57.0039C149.516 56.5117 149.602 55.9648 149.602 55.3633ZM158.742 43V61H155.355V43H158.742ZM168.375 58.1406V52.4922C168.375 52.0859 168.309 51.7383 168.176 51.4492C168.043 51.1523 167.836 50.9219 167.555 50.7578C167.281 50.5938 166.926 50.5117 166.488 50.5117C166.113 50.5117 165.789 50.5781 165.516 50.7109C165.242 50.8359 165.031 51.0195 164.883 51.2617C164.734 51.4961 164.66 51.7734 164.66 52.0938H161.285C161.285 51.5547 161.41 51.043 161.66 50.5586C161.91 50.0742 162.273 49.6484 162.75 49.2812C163.227 48.9062 163.793 48.6133 164.449 48.4023C165.113 48.1914 165.855 48.0859 166.676 48.0859C167.66 48.0859 168.535 48.25 169.301 48.5781C170.066 48.9062 170.668 49.3984 171.105 50.0547C171.551 50.7109 171.773 51.5312 171.773 52.5156V57.9414C171.773 58.6367 171.816 59.207 171.902 59.6523C171.988 60.0898 172.113 60.4727 172.277 60.8008V61H168.867C168.703 60.6562 168.578 60.2266 168.492 59.7109C168.414 59.1875 168.375 58.6641 168.375 58.1406ZM168.82 53.2773L168.844 55.1875H166.957C166.512 55.1875 166.125 55.2383 165.797 55.3398C165.469 55.4414 165.199 55.5859 164.988 55.7734C164.777 55.9531 164.621 56.1641 164.52 56.4062C164.426 56.6484 164.379 56.9141 164.379 57.2031C164.379 57.4922 164.445 57.7539 164.578 57.9883C164.711 58.2148 164.902 58.3945 165.152 58.5273C165.402 58.6523 165.695 58.7148 166.031 58.7148C166.539 58.7148 166.98 58.6133 167.355 58.4102C167.73 58.207 168.02 57.957 168.223 57.6602C168.434 57.3633 168.543 57.082 168.551 56.8164L169.441 58.2461C169.316 58.5664 169.145 58.8984 168.926 59.2422C168.715 59.5859 168.445 59.9102 168.117 60.2148C167.789 60.5117 167.395 60.7578 166.934 60.9531C166.473 61.1406 165.926 61.2344 165.293 61.2344C164.488 61.2344 163.758 61.0742 163.102 60.7539C162.453 60.4258 161.938 59.9766 161.555 59.4062C161.18 58.8281 160.992 58.1719 160.992 57.4375C160.992 56.7734 161.117 56.1836 161.367 55.668C161.617 55.1523 161.984 54.7188 162.469 54.3672C162.961 54.0078 163.574 53.7383 164.309 53.5586C165.043 53.3711 165.895 53.2773 166.863 53.2773H168.82ZM180.586 48.3203V50.7109H173.203V48.3203H180.586ZM175.031 45.1914H178.406V57.1797C178.406 57.5469 178.453 57.8281 178.547 58.0234C178.648 58.2188 178.797 58.3555 178.992 58.4336C179.188 58.5039 179.434 58.5391 179.73 58.5391C179.941 58.5391 180.129 58.5312 180.293 58.5156C180.465 58.4922 180.609 58.4688 180.727 58.4453L180.738 60.9297C180.449 61.0234 180.137 61.0977 179.801 61.1523C179.465 61.207 179.094 61.2344 178.688 61.2344C177.945 61.2344 177.297 61.1133 176.742 60.8711C176.195 60.6211 175.773 60.2227 175.477 59.6758C175.18 59.1289 175.031 58.4102 175.031 57.5195V45.1914ZM181.664 54.7891V54.543C181.664 53.6133 181.797 52.7578 182.062 51.9766C182.328 51.1875 182.715 50.5039 183.223 49.9258C183.73 49.3477 184.355 48.8984 185.098 48.5781C185.84 48.25 186.691 48.0859 187.652 48.0859C188.613 48.0859 189.469 48.25 190.219 48.5781C190.969 48.8984 191.598 49.3477 192.105 49.9258C192.621 50.5039 193.012 51.1875 193.277 51.9766C193.543 52.7578 193.676 53.6133 193.676 54.543V54.7891C193.676 55.7109 193.543 56.5664 193.277 57.3555C193.012 58.1367 192.621 58.8203 192.105 59.4062C191.598 59.9844 190.973 60.4336 190.23 60.7539C189.488 61.0742 188.637 61.2344 187.676 61.2344C186.715 61.2344 185.859 61.0742 185.109 60.7539C184.367 60.4336 183.738 59.9844 183.223 59.4062C182.715 58.8203 182.328 58.1367 182.062 57.3555C181.797 56.5664 181.664 55.7109 181.664 54.7891ZM185.039 54.543V54.7891C185.039 55.3203 185.086 55.8164 185.18 56.2773C185.273 56.7383 185.422 57.1445 185.625 57.4961C185.836 57.8398 186.109 58.1094 186.445 58.3047C186.781 58.5 187.191 58.5977 187.676 58.5977C188.145 58.5977 188.547 58.5 188.883 58.3047C189.219 58.1094 189.488 57.8398 189.691 57.4961C189.895 57.1445 190.043 56.7383 190.137 56.2773C190.238 55.8164 190.289 55.3203 190.289 54.7891V54.543C190.289 54.0273 190.238 53.543 190.137 53.0898C190.043 52.6289 189.891 52.2227 189.68 51.8711C189.477 51.5117 189.207 51.2305 188.871 51.0273C188.535 50.8242 188.129 50.7227 187.652 50.7227C187.176 50.7227 186.77 50.8242 186.434 51.0273C186.105 51.2305 185.836 51.5117 185.625 51.8711C185.422 52.2227 185.273 52.6289 185.18 53.0898C185.086 53.543 185.039 54.0273 185.039 54.543ZM199.125 51.0859V61H195.75V48.3203H198.926L199.125 51.0859ZM202.945 48.2383L202.887 51.3672C202.723 51.3438 202.523 51.3242 202.289 51.3086C202.062 51.2852 201.855 51.2734 201.668 51.2734C201.191 51.2734 200.777 51.3359 200.426 51.4609C200.082 51.5781 199.793 51.7539 199.559 51.9883C199.332 52.2227 199.16 52.5078 199.043 52.8438C198.934 53.1797 198.871 53.5625 198.855 53.9922L198.176 53.7812C198.176 52.9609 198.258 52.207 198.422 51.5195C198.586 50.8242 198.824 50.2188 199.137 49.7031C199.457 49.1875 199.848 48.7891 200.309 48.5078C200.77 48.2266 201.297 48.0859 201.891 48.0859C202.078 48.0859 202.27 48.1016 202.465 48.1328C202.66 48.1562 202.82 48.1914 202.945 48.2383Z" fill="#888888"/>
<path d="M113.18 109.93C113.18 109.398 113.102 108.922 112.945 108.5C112.789 108.062 112.5 107.656 112.078 107.281C111.656 106.906 111.047 106.531 110.25 106.156C109.469 105.766 108.438 105.359 107.156 104.938C105.656 104.438 104.211 103.875 102.82 103.25C101.43 102.609 100.188 101.867 99.0938 101.023C98 100.164 97.1328 99.1641 96.4922 98.0234C95.8516 96.8672 95.5312 95.5234 95.5312 93.9922C95.5312 92.5234 95.8594 91.2031 96.5156 90.0312C97.1719 88.8438 98.0859 87.8359 99.2578 87.0078C100.445 86.1641 101.836 85.5234 103.43 85.0859C105.023 84.6328 106.766 84.4062 108.656 84.4062C111.156 84.4062 113.359 84.8438 115.266 85.7188C117.188 86.5781 118.688 87.8047 119.766 89.3984C120.859 90.9766 121.406 92.8438 121.406 95H113.227C113.227 94.1406 113.047 93.3828 112.688 92.7266C112.344 92.0703 111.82 91.5547 111.117 91.1797C110.414 90.8047 109.531 90.6172 108.469 90.6172C107.438 90.6172 106.57 90.7734 105.867 91.0859C105.164 91.3984 104.633 91.8203 104.273 92.3516C103.914 92.8672 103.734 93.4375 103.734 94.0625C103.734 94.5781 103.875 95.0469 104.156 95.4688C104.453 95.875 104.867 96.2578 105.398 96.6172C105.945 96.9766 106.602 97.3203 107.367 97.6484C108.148 97.9766 109.023 98.2969 109.992 98.6094C111.805 99.1875 113.414 99.8359 114.82 100.555C116.242 101.258 117.438 102.062 118.406 102.969C119.391 103.859 120.133 104.875 120.633 106.016C121.148 107.156 121.406 108.445 121.406 109.883C121.406 111.414 121.109 112.773 120.516 113.961C119.922 115.148 119.07 116.156 117.961 116.984C116.852 117.797 115.523 118.414 113.977 118.836C112.43 119.258 110.703 119.469 108.797 119.469C107.047 119.469 105.32 119.25 103.617 118.812C101.93 118.359 100.398 117.672 99.0234 116.75C97.6484 115.812 96.5469 114.617 95.7188 113.164C94.9062 111.695 94.5 109.953 94.5 107.938H102.75C102.75 108.938 102.883 109.781 103.148 110.469C103.414 111.156 103.805 111.711 104.32 112.133C104.836 112.539 105.469 112.836 106.219 113.023C106.969 113.195 107.828 113.281 108.797 113.281C109.844 113.281 110.688 113.133 111.328 112.836C111.969 112.523 112.438 112.117 112.734 111.617C113.031 111.102 113.18 110.539 113.18 109.93ZM133.031 99.0547V119H125.133V93.6406H132.539L133.031 99.0547ZM132.094 105.453L130.242 105.5C130.242 103.562 130.477 101.836 130.945 100.32C131.414 98.7891 132.078 97.4922 132.938 96.4297C133.797 95.3672 134.82 94.5625 136.008 94.0156C137.211 93.4531 138.547 93.1719 140.016 93.1719C141.188 93.1719 142.258 93.3438 143.227 93.6875C144.211 94.0312 145.055 94.5859 145.758 95.3516C146.477 96.1172 147.023 97.1328 147.398 98.3984C147.789 99.6484 147.984 101.195 147.984 103.039V119H140.039V103.016C140.039 102 139.898 101.227 139.617 100.695C139.336 100.148 138.93 99.7734 138.398 99.5703C137.867 99.3672 137.219 99.2656 136.453 99.2656C135.641 99.2656 134.953 99.4219 134.391 99.7344C133.828 100.047 133.375 100.484 133.031 101.047C132.703 101.594 132.461 102.242 132.305 102.992C132.164 103.742 132.094 104.562 132.094 105.453ZM165.539 112.625V102.172C165.539 101.453 165.438 100.836 165.234 100.32C165.031 99.8047 164.711 99.4062 164.273 99.125C163.836 98.8281 163.25 98.6797 162.516 98.6797C161.922 98.6797 161.414 98.7812 160.992 98.9844C160.57 99.1875 160.25 99.4922 160.031 99.8984C159.812 100.305 159.703 100.82 159.703 101.445H151.805C151.805 100.273 152.062 99.1875 152.578 98.1875C153.109 97.1719 153.859 96.2891 154.828 95.5391C155.812 94.7891 156.984 94.2109 158.344 93.8047C159.719 93.3828 161.25 93.1719 162.938 93.1719C164.953 93.1719 166.75 93.5078 168.328 94.1797C169.922 94.8516 171.18 95.8594 172.102 97.2031C173.023 98.5312 173.484 100.203 173.484 102.219V112.602C173.484 114.258 173.578 115.516 173.766 116.375C173.953 117.219 174.219 117.961 174.562 118.602V119H166.641C166.266 118.219 165.984 117.266 165.797 116.141C165.625 115 165.539 113.828 165.539 112.625ZM166.5 103.508L166.547 107.727H163.055C162.32 107.727 161.695 107.828 161.18 108.031C160.68 108.234 160.273 108.516 159.961 108.875C159.664 109.219 159.445 109.609 159.305 110.047C159.18 110.484 159.117 110.945 159.117 111.43C159.117 111.898 159.227 112.32 159.445 112.695C159.68 113.055 159.992 113.336 160.383 113.539C160.773 113.742 161.211 113.844 161.695 113.844C162.57 113.844 163.312 113.68 163.922 113.352C164.547 113.008 165.023 112.594 165.352 112.109C165.68 111.625 165.844 111.172 165.844 110.75L167.578 113.984C167.266 114.609 166.906 115.242 166.5 115.883C166.109 116.523 165.617 117.117 165.023 117.664C164.445 118.195 163.734 118.633 162.891 118.977C162.047 119.305 161.023 119.469 159.82 119.469C158.258 119.469 156.82 119.148 155.508 118.508C154.211 117.867 153.172 116.977 152.391 115.836C151.609 114.68 151.219 113.352 151.219 111.852C151.219 110.539 151.453 109.367 151.922 108.336C152.406 107.305 153.133 106.43 154.102 105.711C155.07 104.992 156.305 104.445 157.805 104.07C159.305 103.695 161.07 103.508 163.102 103.508H166.5ZM185.836 98.5156V128.75H177.938V93.6406H185.297L185.836 98.5156ZM201.398 106.016V106.508C201.398 108.352 201.188 110.062 200.766 111.641C200.344 113.219 199.719 114.594 198.891 115.766C198.062 116.938 197.031 117.852 195.797 118.508C194.578 119.148 193.164 119.469 191.555 119.469C190.039 119.469 188.734 119.133 187.641 118.461C186.547 117.789 185.633 116.859 184.898 115.672C184.164 114.484 183.57 113.125 183.117 111.594C182.664 110.062 182.305 108.445 182.039 106.742V106.109C182.305 104.281 182.664 102.586 183.117 101.023C183.57 99.4453 184.164 98.0703 184.898 96.8984C185.633 95.7266 186.539 94.8125 187.617 94.1562C188.711 93.5 190.016 93.1719 191.531 93.1719C193.141 93.1719 194.555 93.4766 195.773 94.0859C197.008 94.6953 198.039 95.5703 198.867 96.7109C199.711 97.8359 200.344 99.1875 200.766 100.766C201.188 102.344 201.398 104.094 201.398 106.016ZM193.5 106.508V106.016C193.5 105.031 193.43 104.133 193.289 103.32C193.148 102.492 192.922 101.773 192.609 101.164C192.312 100.555 191.914 100.086 191.414 99.7578C190.914 99.4297 190.297 99.2656 189.562 99.2656C188.719 99.2656 188.008 99.3984 187.43 99.6641C186.867 99.9141 186.414 100.305 186.07 100.836C185.742 101.352 185.508 102 185.367 102.781C185.242 103.547 185.188 104.445 185.203 105.477V107.398C185.172 108.586 185.289 109.633 185.555 110.539C185.82 111.43 186.281 112.125 186.938 112.625C187.594 113.125 188.484 113.375 189.609 113.375C190.359 113.375 190.984 113.203 191.484 112.859C191.984 112.5 192.383 112.008 192.68 111.383C192.977 110.742 193.188 110.008 193.312 109.18C193.438 108.352 193.5 107.461 193.5 106.508ZM218.203 111.875C218.203 111.438 218.055 111.062 217.758 110.75C217.477 110.422 216.977 110.125 216.258 109.859C215.539 109.578 214.531 109.297 213.234 109.016C212 108.75 210.836 108.398 209.742 107.961C208.664 107.523 207.719 106.992 206.906 106.367C206.094 105.742 205.453 105 204.984 104.141C204.531 103.281 204.305 102.297 204.305 101.188C204.305 100.109 204.531 99.0938 204.984 98.1406C205.453 97.1719 206.133 96.3203 207.023 95.5859C207.93 94.8359 209.031 94.25 210.328 93.8281C211.625 93.3906 213.102 93.1719 214.758 93.1719C217.039 93.1719 219.008 93.5234 220.664 94.2266C222.32 94.9141 223.594 95.8828 224.484 97.1328C225.391 98.3672 225.844 99.7969 225.844 101.422H217.945C217.945 100.781 217.836 100.234 217.617 99.7812C217.414 99.3281 217.078 98.9844 216.609 98.75C216.141 98.5 215.516 98.375 214.734 98.375C214.188 98.375 213.688 98.4766 213.234 98.6797C212.797 98.8828 212.445 99.1641 212.18 99.5234C211.914 99.8828 211.781 100.305 211.781 100.789C211.781 101.133 211.859 101.445 212.016 101.727C212.188 101.992 212.445 102.242 212.789 102.477C213.133 102.695 213.57 102.898 214.102 103.086C214.633 103.258 215.273 103.414 216.023 103.555C217.727 103.867 219.32 104.312 220.805 104.891C222.289 105.469 223.492 106.289 224.414 107.352C225.352 108.414 225.82 109.844 225.82 111.641C225.82 112.766 225.562 113.805 225.047 114.758C224.531 115.695 223.789 116.523 222.82 117.242C221.852 117.945 220.688 118.492 219.328 118.883C217.969 119.273 216.438 119.469 214.734 119.469C212.312 119.469 210.266 119.039 208.594 118.18C206.922 117.305 205.656 116.211 204.797 114.898C203.953 113.57 203.531 112.227 203.531 110.867H210.891C210.922 111.648 211.109 112.289 211.453 112.789C211.812 113.289 212.289 113.656 212.883 113.891C213.477 114.125 214.164 114.242 214.945 114.242C215.664 114.242 216.258 114.141 216.727 113.938C217.211 113.734 217.578 113.461 217.828 113.117C218.078 112.758 218.203 112.344 218.203 111.875ZM237.258 83V119H229.359V83H237.258ZM236.32 105.453L234.469 105.5C234.469 103.719 234.688 102.078 235.125 100.578C235.562 99.0781 236.188 97.7734 237 96.6641C237.812 95.5547 238.789 94.6953 239.93 94.0859C241.07 93.4766 242.336 93.1719 243.727 93.1719C244.977 93.1719 246.117 93.3516 247.148 93.7109C248.195 94.0703 249.094 94.6484 249.844 95.4453C250.609 96.2422 251.195 97.2812 251.602 98.5625C252.023 99.8438 252.234 101.406 252.234 103.25V119H244.289V103.203C244.289 102.172 244.141 101.375 243.844 100.812C243.562 100.234 243.156 99.8359 242.625 99.6172C242.094 99.3828 241.445 99.2656 240.68 99.2656C239.758 99.2656 239.008 99.4219 238.43 99.7344C237.852 100.047 237.406 100.484 237.094 101.047C236.797 101.594 236.594 102.242 236.484 102.992C236.375 103.742 236.32 104.562 236.32 105.453ZM255.633 106.578V106.086C255.633 104.227 255.898 102.516 256.43 100.953C256.961 99.375 257.742 98.0078 258.773 96.8516C259.805 95.6953 261.078 94.7969 262.594 94.1562C264.109 93.5 265.859 93.1719 267.844 93.1719C269.844 93.1719 271.602 93.5 273.117 94.1562C274.648 94.7969 275.93 95.6953 276.961 96.8516C277.992 98.0078 278.773 99.375 279.305 100.953C279.836 102.516 280.102 104.227 280.102 106.086V106.578C280.102 108.422 279.836 110.133 279.305 111.711C278.773 113.273 277.992 114.641 276.961 115.812C275.93 116.969 274.656 117.867 273.141 118.508C271.625 119.148 269.875 119.469 267.891 119.469C265.906 119.469 264.148 119.148 262.617 118.508C261.086 117.867 259.805 116.969 258.773 115.812C257.742 114.641 256.961 113.273 256.43 111.711C255.898 110.133 255.633 108.422 255.633 106.578ZM263.531 106.086V106.578C263.531 107.531 263.602 108.422 263.742 109.25C263.883 110.078 264.117 110.805 264.445 111.43C264.773 112.039 265.219 112.516 265.781 112.859C266.344 113.203 267.047 113.375 267.891 113.375C268.719 113.375 269.406 113.203 269.953 112.859C270.516 112.516 270.961 112.039 271.289 111.43C271.617 110.805 271.852 110.078 271.992 109.25C272.133 108.422 272.203 107.531 272.203 106.578V106.086C272.203 105.164 272.133 104.297 271.992 103.484C271.852 102.656 271.617 101.93 271.289 101.305C270.961 100.664 270.516 100.164 269.953 99.8047C269.391 99.4453 268.688 99.2656 267.844 99.2656C267.016 99.2656 266.32 99.4453 265.758 99.8047C265.211 100.164 264.773 100.664 264.445 101.305C264.117 101.93 263.883 102.656 263.742 103.484C263.602 104.297 263.531 105.164 263.531 106.086ZM296.977 93.6406V99.125H281.695V93.6406H296.977ZM284.906 87.3359H292.805V110.727C292.805 111.398 292.883 111.922 293.039 112.297C293.195 112.656 293.461 112.914 293.836 113.07C294.227 113.211 294.742 113.281 295.383 113.281C295.836 113.281 296.211 113.273 296.508 113.258C296.805 113.227 297.086 113.188 297.352 113.141V118.789C296.68 119.008 295.977 119.172 295.242 119.281C294.508 119.406 293.727 119.469 292.898 119.469C291.211 119.469 289.766 119.203 288.562 118.672C287.375 118.141 286.469 117.305 285.844 116.164C285.219 115.023 284.906 113.539 284.906 111.711V87.3359ZM313.406 111.875C313.406 111.438 313.258 111.062 312.961 110.75C312.68 110.422 312.18 110.125 311.461 109.859C310.742 109.578 309.734 109.297 308.438 109.016C307.203 108.75 306.039 108.398 304.945 107.961C303.867 107.523 302.922 106.992 302.109 106.367C301.297 105.742 300.656 105 300.188 104.141C299.734 103.281 299.508 102.297 299.508 101.188C299.508 100.109 299.734 99.0938 300.188 98.1406C300.656 97.1719 301.336 96.3203 302.227 95.5859C303.133 94.8359 304.234 94.25 305.531 93.8281C306.828 93.3906 308.305 93.1719 309.961 93.1719C312.242 93.1719 314.211 93.5234 315.867 94.2266C317.523 94.9141 318.797 95.8828 319.688 97.1328C320.594 98.3672 321.047 99.7969 321.047 101.422H313.148C313.148 100.781 313.039 100.234 312.82 99.7812C312.617 99.3281 312.281 98.9844 311.812 98.75C311.344 98.5 310.719 98.375 309.938 98.375C309.391 98.375 308.891 98.4766 308.438 98.6797C308 98.8828 307.648 99.1641 307.383 99.5234C307.117 99.8828 306.984 100.305 306.984 100.789C306.984 101.133 307.062 101.445 307.219 101.727C307.391 101.992 307.648 102.242 307.992 102.477C308.336 102.695 308.773 102.898 309.305 103.086C309.836 103.258 310.477 103.414 311.227 103.555C312.93 103.867 314.523 104.312 316.008 104.891C317.492 105.469 318.695 106.289 319.617 107.352C320.555 108.414 321.023 109.844 321.023 111.641C321.023 112.766 320.766 113.805 320.25 114.758C319.734 115.695 318.992 116.523 318.023 117.242C317.055 117.945 315.891 118.492 314.531 118.883C313.172 119.273 311.641 119.469 309.938 119.469C307.516 119.469 305.469 119.039 303.797 118.18C302.125 117.305 300.859 116.211 300 114.898C299.156 113.57 298.734 112.227 298.734 110.867H306.094C306.125 111.648 306.312 112.289 306.656 112.789C307.016 113.289 307.492 113.656 308.086 113.891C308.68 114.125 309.367 114.242 310.148 114.242C310.867 114.242 311.461 114.141 311.93 113.938C312.414 113.734 312.781 113.461 313.031 113.117C313.281 112.758 313.406 112.344 313.406 111.875Z" fill="black"/>
<path d="M1134 0H1348C1356.28 0 1363 6.71573 1363 15V148C1363 156.284 1356.28 163 1348 163H1134V0Z" fill="#95A5A5"/>
<path fill-rule="evenodd" clip-rule="evenodd" d="M1202.75 46.5018C1202.75 45.3973 1203.65 44.5018 1204.75 44.5018H1292.25C1293.35 44.5018 1294.25 45.3973 1294.25 46.5018V116.498C1294.25 117.603 1293.35 118.498 1292.25 118.498H1204.75C1203.65 118.498 1202.75 117.603 1202.75 116.498V46.5018ZM1206.75 48.5018V52.9963H1290.25V48.5018H1206.75ZM1290.25 56.9963H1235.19V114.498H1290.25V56.9963ZM1231.19 114.498V56.9963H1206.75V114.498H1231.19Z" fill="white"/>
<path fill-rule="evenodd" clip-rule="evenodd" d="M1209.72 62.3022C1209.72 61.1976 1210.62 60.3022 1211.72 60.3022H1225.72C1226.83 60.3022 1227.72 61.1976 1227.72 62.3022V81.6974C1227.72 82.802 1226.83 83.6974 1225.72 83.6974H1211.72C1210.62 83.6974 1209.72 82.802 1209.72 81.6974V62.3022ZM1213.72 64.3022V79.6974H1223.72V64.3022H1213.72ZM1239.33 63.1982C1239.33 62.0936 1240.22 61.1982 1241.33 61.1982H1284.25C1285.36 61.1982 1286.25 62.0936 1286.25 63.1982V109.407C1286.25 110.511 1285.36 111.407 1284.25 111.407H1241.33C1240.22 111.407 1239.33 110.511 1239.33 109.407V63.1982ZM1243.33 65.1982V107.407H1282.25V65.1982H1243.33ZM1209.56 93.4381C1209.56 92.3336 1210.46 91.4381 1211.56 91.4381H1220.48C1221.59 91.4381 1222.48 92.3336 1222.48 93.4381C1222.48 94.5427 1221.59 95.4381 1220.48 95.4381H1211.56C1210.46 95.4381 1209.56 94.5427 1209.56 93.4381ZM1209.56 100.438C1209.56 99.3335 1210.46 98.4381 1211.56 98.4381H1226.1C1227.21 98.4381 1228.1 99.3335 1228.1 100.438C1228.1 101.543 1227.21 102.438 1226.1 102.438H1211.56C1210.46 102.438 1209.56 101.543 1209.56 100.438ZM1209.56 107.438C1209.56 106.334 1210.46 105.438 1211.56 105.438H1220.48C1221.59 105.438 1222.48 106.334 1222.48 107.438C1222.48 108.543 1221.59 109.438 1220.48 109.438H1211.56C1210.46 109.438 1209.56 108.543 1209.56 107.438Z" fill="white"/>
</svg>
